<svg xmlns="http://www.w3.org/2000/svg" viewBox="0 0 180 180" width="180" height="180">
  <defs>
    <linearGradient id="bg" x1="0" y1="0" x2="0" y2="1">
      <stop offset="0" stop-color="#1a2e1a"/>
      <stop offset="0.5" stop-color="#2d5a1b"/>
      <stop offset="1" stop-color="#1b6ca8"/>
    </linearGradient>
    <linearGradient id="land" x1="0" y1="0" x2="1" y2="1">
      <stop offset="0" stop-color="#7ed957"/>
      <stop offset="1" stop-color="#3fae6a"/>
    </linearGradient>
  </defs>
  <rect x="0" y="0" width="180" height="180" fill="url(#bg)"/>
  <!-- North Island -->
  <path fill="url(#land)" stroke="#ffffff" stroke-width="1.6" stroke-linejoin="round"
    d="M126 34
       c3 3 2 8 -1 11
       c-4 4 -9 5 -11 10
       c6 -1 12 1 17 5
       c5 4 10 9 9 16
       c-1 6 -7 9 -13 9
       c-5 0 -9 -3 -13 -6
       c-4 -4 -8 -9 -13 -11
       c2 -7 5 -14 9 -20
       c3 -6 6 -13 12 -17
       c3 -2 6 -3 8 -6 z"/>
  <!-- South Island -->
  <path fill="url(#land)" stroke="#ffffff" stroke-width="1.6" stroke-linejoin="round"
    d="M108 92
       c6 1 11 4 13 10
       c2 6 -1 12 -5 17
       c-5 6 -11 11 -16 17
       c3 1 7 0 9 3
       c2 3 -1 6 -3 8
       c-5 5 -11 9 -18 11
       c-6 2 -13 2 -18 -2
       c-4 -3 -5 -9 -3 -14
       c3 -8 9 -14 15 -20
       c7 -7 14 -14 22 -20
       c1 -1 2 -2 3 -3
       c-3 -1 -6 -1 -8 -3
       c-3 -3 -1 -8 2 -10 z"/>
  <!-- Stewart Island -->
  <circle cx="60" cy="150" r="4" fill="url(#land)" stroke="#ffffff" stroke-width="1.2"/>
  <!-- Christchurch landing pin -->
  <g transform="translate(96,120)">
    <path d="M0 -13 c6 0 10 4 10 10 c0 8 -10 16 -10 16 c0 0 -10 -8 -10 -16 c0 -6 4 -10 10 -10 z" fill="#e63b2e" stroke="#fff" stroke-width="1.4"/>
    <circle cx="0" cy="-3" r="3.4" fill="#fff"/>
  </g>
</svg>
